<svg width="91" height="15" viewBox="0 0 91 15" fill="none" xmlns="http://www.w3.org/2000/svg">
<path d="M7.49999 0L9.18385 5.18237H14.6329L10.2245 8.38525L11.9084 13.5676L7.49999 10.3647L3.0916 13.5676L4.77546 8.38525L0.367065 5.18237H5.81613L7.49999 0Z" fill="#EB9B00"/>
<path d="M26.5 0L28.1839 5.18237H33.6329L29.2245 8.38525L30.9084 13.5676L26.5 10.3647L22.0916 13.5676L23.7755 8.38525L19.3671 5.18237H24.8161L26.5 0Z" fill="#EB9B00"/>
<path d="M45.5 0L47.1839 5.18237H52.6329L48.2245 8.38525L49.9084 13.5676L45.5 10.3647L41.0916 13.5676L42.7755 8.38525L38.3671 5.18237H43.8161L45.5 0Z" fill="#EB9B00" fill-opacity="0.01"/>
<path d="M83.5 0L85.1839 5.18237H90.6329L86.2245 8.38525L87.9084 13.5676L83.5 10.3647L79.0916 13.5676L80.7755 8.38525L76.3671 5.18237H81.8161L83.5 0Z" fill="black" fill-opacity="0.01"/>
</svg>
