<svg width="35" height="32" viewBox="0 0 35 32" fill="none" xmlns="http://www.w3.org/2000/svg">
<g clip-path="url(#clip0_41_2)">
<path d="M25.4087 0C22.3743 0 19.4621 1.41253 17.5613 3.64469C15.6604 1.41253 12.7482 0 9.71384 0C4.34272 0 0.122559 4.22016 0.122559 9.59128C0.122559 16.1831 6.05171 21.5542 15.0326 29.7155L17.5613 32L20.0899 29.6981C29.0708 21.5542 34.9999 16.1831 34.9999 9.59128C34.9999 4.22016 30.7798 0 25.4087 0ZM17.7356 27.1172L17.5613 27.2916L17.3869 27.1172C9.08605 19.6011 3.6103 14.6311 3.6103 9.59128C3.6103 6.10354 6.2261 3.48774 9.71384 3.48774C12.3994 3.48774 15.0152 5.21417 15.9395 7.60327H19.2005C20.1073 5.21417 22.7231 3.48774 25.4087 3.48774C28.8964 3.48774 31.5122 6.10354 31.5122 9.59128C31.5122 14.6311 26.0365 19.6011 17.7356 27.1172Z" fill="url(#paint0_linear_41_2)"/>
<path d="M23.5 10C22.4037 11.2116 21.2744 12.3996 20.1944 13.625C19.7097 14.1749 19.0436 14.7871 19 15.5556C18.9627 16.212 18.7881 17.0403 19.5625 17.3333C20.466 17.6752 22.1012 16.2926 22.4166 15.5417C22.9349 14.3077 21.9914 13.3041 21.125 12.5694C20.8878 12.3683 20.0081 11.3427 19.8472 11.9306C19.4654 13.3254 19.6516 14.3154 20.9791 14.9792C21.3446 15.1619 22.2315 15.7347 21.5 15.125" stroke="#F5F5F5" stroke-width="3" stroke-linecap="round"/>
<path d="M24.7501 6.875C25.1791 6.98225 24.0064 9.08642 23.9584 9.22222C23.5153 10.4744 23.1849 11.8758 23.1389 13.2083C23.1089 14.0799 23.3876 14.5252 23.7501 15.25" stroke="#F5F5F5" stroke-width="3" stroke-linecap="round"/>
<path d="M23.5 6.62499C23.8782 6.90862 24.5585 7.28345 25.007 7.4236C25.6593 7.62747 26.1732 6.33892 26 5.81944C25.8934 5.49961 25.4258 4.05198 24.9723 4.15277C23.8745 4.39672 23.0759 5.74324 22 6.12499C21.6911 6.23461 21.4204 6.47121 21.1598 6.66666C20.7794 6.95192 22.0715 6.3696 22.4792 6.12499C22.9793 5.8249 23.7444 5.02351 24.4028 4.99999C24.9409 4.98077 25.0688 4.51823 25.625 4.74999C26.4527 5.09485 27.0953 5.83634 27.7639 6.41666C28.3174 6.89708 28.165 7.83026 28.0625 8.4861C28.0217 8.74737 27.9508 9.20863 27.7223 8.69444C27.2965 7.7366 26.9977 6.60932 26.7778 5.58333C26.5352 4.45102 27.2021 4.949 27.8056 5.3611C28.7387 5.99832 29.5899 6.8447 29.9723 7.93055C30.2673 8.76853 30.2288 9.36024 29.9931 10.1458C29.7761 10.869 29.3881 11.4393 29.375 12.2222C29.3667 12.7235 29.4352 13.2092 29.1181 13.6319C28.6544 14.2502 28.612 14.9998 28 15.5278C27.6609 15.8203 27.5386 15.955 27.7778 15.4167C28.0712 14.7565 28.1497 13.7867 28.6389 13.243C28.9863 12.8571 29.6907 12.4042 30.25 12.6528C30.3893 12.7146 30.267 12.7757 30.1667 12.7222C29.6611 12.4525 29.2087 12.0081 28.7153 11.7014C27.3291 10.8397 25.5928 10.7663 23.9861 10.5972C22.5485 10.4459 21.0335 9.72815 19.7778 9.03472C19.1862 8.708 18.5854 8.22282 17.9306 8.02777C17.4833 7.89454 16.9856 7.88268 16.5278 7.77777C14.6131 7.33898 12.9044 6.84013 11.3195 5.62499C10.7466 5.18577 10.1334 4.7773 9.45836 4.51388C9.18773 4.40827 7.93233 4.16016 7.83336 3.93749C7.55956 3.32143 9.18226 4.09931 9.81948 4.31944C11.0793 4.75463 11.7298 6.31772 13.1806 6.55555C13.5965 6.62373 12.5655 5.63289 12.5139 5.55555C12.3711 5.34137 12.1374 4.20468 12.1806 4.2361C15.2197 6.4464 18.9834 7.50339 22.5695 8.52083C23.3811 8.7511 25.8367 9.24999 24.9931 9.24999C24.77 9.24999 24.3073 9.15971 24.2848 9.4861C24.1945 10.7946 25.9779 12.3228 26.7778 13.1944C26.9029 13.3308 27.4416 13.6391 27.4931 13.8194C27.633 14.3091 27.4997 12.8005 27.4792 12.2917C27.4138 10.6676 27.3069 8.98234 26.7361 7.44444C26.6325 7.16507 26.5193 6.84038 26.2917 7.24999C25.8085 8.1198 25.4883 9.09976 25.1389 10.0278C24.9013 10.659 24.5139 11.3822 24.5139 12.0764C24.5139 12.8581 24.8759 13.6799 25.1945 14.375C25.4311 14.8913 25.6358 15.5726 25.8056 14.7639C25.8878 14.3726 26.5373 12.25 27.0695 12.25C27.7806 12.25 28.6184 12.188 29.2917 11.9722C29.8528 11.7924 30.2283 11.375 30.8403 11.375C30.9394 11.375 31.5082 11.4134 31.2223 11.25C30.7355 10.9719 30.9384 10.6084 30.4306 11.2222C29.7145 12.0878 28.9393 13.0497 28.0764 13.7847C27.2506 14.4882 27.25 13.8599 27.25 13.0417C27.25 12.0724 26.5629 11.4585 25.75 11.0069C24.7234 10.4366 23.7302 10.4359 22.6111 10.3472C21.0302 10.222 19.4692 9.27827 18.0834 8.56249C16.9177 7.96043 16.1816 7.56407 14.8611 7.55555C12.8862 7.54281 10.3182 7.88134 8.74309 6.43055C8.01307 5.75816 7.10067 5.28584 6.23614 4.80555C5.76482 4.5437 5.27385 5.6141 5.09725 5.88194C4.65525 6.55231 4.26712 7.25243 3.86114 7.94444C3.72669 8.17361 3.40642 8.53889 3.42364 8.84027C3.48554 9.92352 5.21153 10.9615 6.00003 11.6528C6.87697 12.4216 7.78378 13.1449 8.6042 13.9653C10.6891 16.0502 13.1644 17.492 15.5278 19.1875C17.324 20.476 19.8423 20.5963 21.9375 21.0694C22.8451 21.2744 25.615 22.973 26 21.75C26.2401 20.9873 26.0657 20.2563 26.007 19.493C25.9458 18.6982 25.509 18.3138 25.9167 17.5833C26.1762 17.1185 25.3886 16.8343 25.1042 16.5833C24.694 16.2214 24.187 15.9123 23.875 15.4444C23.5652 14.9797 23.3259 14.4939 22.9167 14.1042C22.5752 13.779 22.0873 13.4908 21.7917 13.1389C21.2327 12.4734 20.9318 11.7551 20.1806 11.2361C18.083 9.78687 14.9079 8.95017 12.4167 8.99999C11.7613 9.0131 7.51091 9.98381 7.37503 8.62499C7.33748 8.24952 7.16147 7.99999 6.75003 7.99999C6.01971 7.99999 6.33371 8.50763 6.0417 8.93055C5.52595 9.6775 4.47266 10.7187 5.27781 11.6389C6.00028 12.4646 6.92354 13.3626 7.77781 14.0417C8.70511 14.7787 10.1229 14.8308 11.2223 15.1805C11.849 15.38 12.1319 15.1662 12.0278 14.5417C11.9288 13.9477 11.6236 13.5574 11.3473 13.0417C11.2294 12.8217 11.0768 12.9361 11.007 12.7847C10.8098 12.3574 10.7392 11.6529 10.125 11.625C9.63359 11.6027 9.41009 11.8095 9.00003 11.868C8.15122 11.9893 9.01242 12.6849 9.47225 12.8472C9.999 13.0331 10.9185 12.7137 11.3959 12.5903C12.3187 12.3516 13.4036 12.0289 13.9792 11.2014C14.2462 10.8176 13.7342 10.2245 13.5973 10.5694C12.8526 12.4449 12.9584 14.1063 14.6806 15.2986C15.2437 15.6884 15.8293 15.8836 16.4028 16.2083C17.3236 16.7298 18.1372 17.3766 19.0973 17.8472C19.5935 18.0905 20.2899 18.5917 20.8195 18.743C21.1977 18.8511 21.518 19.0213 21.9167 19.0972C22.2349 19.1578 22.5187 19.2111 22.8056 19.375C23.4285 19.7309 22.7286 18.8315 22.5417 18.5972C21.8226 17.6961 21.1456 16.7025 20.2223 16.0278C19.3043 15.3569 18.4481 14.2743 17.6945 13.4167C16.9342 12.5515 16.5332 11.6804 15.3542 11.5625C14.1069 11.4378 13.2161 10.7806 12.0278 10.5278C11.5274 10.4213 10.9521 10.5 10.4445 10.5C9.89117 10.5 10.8437 11.1957 10.9167 11.2639C11.8455 12.1312 12.8231 13.0434 13.875 13.7639C15.1146 14.6129 16.5568 15.0096 17.9167 15.6111C18.6091 15.9173 19.2213 16.3296 19.882 16.6875C20.828 17.1999 21.9504 17.2026 22.8334 17.8333C23.4717 18.2893 24.8262 18.9831 25.0625 19.7708C25.0937 19.8746 25.3543 20.5779 25.1736 20.618C24.7979 20.7015 24.452 20.5214 24.1806 20.2778C23.358 19.5395 22.9612 18.5045 22.3195 17.6667C21.9745 17.2162 21.7739 16.6765 21.4445 16.2153C21.0923 15.7222 20.5995 15.3124 20.4028 14.7222C20.1592 13.9914 20.2802 13.1978 19.9445 12.4861C19.7866 12.1514 19.0151 11.3496 19.1806 11.6805C19.6647 12.6487 21.3696 13.4546 22.2292 13.9861C22.8522 14.3713 23.5943 14.6138 24.1945 15.0139C24.8824 15.4725 25.5883 16.0113 26.1528 16.6111C26.5881 17.0736 28.0544 18.2734 27.507 17.9514C25.0272 16.4927 22.3933 15.4177 19.4584 15.25C15.6618 15.033 11.8268 14.8732 8.0417 14.5069C7.32398 14.4375 6.57627 14.1919 5.87503 14.0417C5.11614 13.879 4.36043 13.6836 3.59725 13.5417C3.24416 13.476 3.78437 13.8148 3.81948 13.8472C5.02661 14.9625 6.19513 16.1497 7.30559 17.3611C8.02297 18.1437 8.89965 18.7741 9.69448 19.4722C10.4487 20.1347 11.0863 20.9241 11.8681 21.5555C13.36 22.7606 14.789 24.0546 16.2986 25.2361C16.6089 25.4789 16.7089 25.7708 17.125 25.75C17.8736 25.7126 18.4586 24.9119 19.0348 24.5278C19.2926 24.3558 20.6586 24.3357 20.625 24C20.5785 23.5352 19.8562 22.9373 19.5 22.6944C18.7581 22.1886 17.6437 22.3964 16.8195 22.6319C16.7259 22.6587 17.397 23.5857 17.8056 23.4722C18.0847 23.3947 18.3348 23.1722 18.625 23.1458C19.0226 23.1097 19.3253 23.4676 19.6667 23.6042C20.1804 23.8096 20.6463 23.119 20.9167 22.8055C21.0122 22.6948 21.117 22.5144 21.257 22.4444C21.3469 22.3995 21.6509 22.5699 21.507 22.4514C20.5704 21.68 19.5348 20.625 18.25 20.625C17.8887 20.625 17.6695 20.8057 17.3264 20.8819C16.5566 21.053 15.8663 21.2977 15.125 21.5625C14.4879 21.79 13.465 20.4439 13.0556 20.0555C12.5222 19.5495 11.9608 19.0636 11.4236 18.5555C10.8716 18.0333 10.1631 17.5959 9.52781 17.1805C9.29545 17.0286 9.01153 17.023 8.87503 16.75" stroke="#4DC53A" stroke-width="3" stroke-linecap="round"/>
<path d="M7.375 10.625C7.68154 10.9154 7.98784 11.0951 8.375 11.25" stroke="#4DC53A" stroke-width="3" stroke-linecap="round"/>
<path d="M20.25 11.375C20.3027 11.5155 20.4709 11.4967 20.5972 11.5278C21.4122 11.728 22.245 12.006 23.0139 12.3403C23.7063 12.6413 24.3688 12.625 25.125 12.625" stroke="#4DC53A" stroke-width="3" stroke-linecap="round"/>
</g>
<defs>
<linearGradient id="paint0_linear_41_2" x1="14.6952" y1="-3.84001" x2="64.9448" y2="3.41189" gradientUnits="userSpaceOnUse">
<stop stop-color="#52C140"/>
<stop offset="1" stop-color="#43CC2D"/>
</linearGradient>
<clipPath id="clip0_41_2">
<rect width="35" height="32" fill="white"/>
</clipPath>
</defs>
</svg>
