<svg width="17" height="17" viewBox="0 0 17 17" fill="none" xmlns="http://www.w3.org/2000/svg">
<path d="M8.48674 8.81875e-05C8.26191 0.00308163 8.04767 0.0819298 7.89102 0.219328C7.73438 0.356726 7.64813 0.541448 7.65121 0.732953V1.09444H2.98286C2.87042 1.09314 2.75881 1.11088 2.65449 1.14663C2.55017 1.18238 2.45523 1.23543 2.37518 1.30269C2.29513 1.36996 2.23157 1.4501 2.18819 1.53846C2.1448 1.62682 2.12246 1.72164 2.12246 1.81742H0.86088C0.748405 1.81607 0.636736 1.83377 0.532361 1.86949C0.427987 1.90522 0.33299 1.95826 0.252889 2.02552C0.172789 2.09279 0.109184 2.17295 0.0657703 2.26134C0.0223565 2.34973 0 2.44459 0 2.5404C0 2.63622 0.0223565 2.73107 0.0657703 2.81946C0.109184 2.90785 0.172789 2.98801 0.252889 3.05528C0.33299 3.12255 0.427987 3.17559 0.532361 3.21131C0.636736 3.24704 0.748405 3.26474 0.86088 3.26338H16.1391C16.2516 3.26474 16.3633 3.24704 16.4676 3.21131C16.572 3.17559 16.667 3.12255 16.7471 3.05528C16.8272 2.98801 16.8908 2.90785 16.9342 2.81946C16.9776 2.73107 17 2.63622 17 2.5404C17 2.44459 16.9776 2.34973 16.9342 2.26134C16.8908 2.17295 16.8272 2.09279 16.7471 2.02552C16.667 1.95826 16.572 1.90522 16.4676 1.86949C16.3633 1.83377 16.2516 1.81607 16.1391 1.81742H14.8775C14.8775 1.72164 14.8552 1.62682 14.8118 1.53846C14.7684 1.4501 14.7049 1.36996 14.6248 1.30269C14.5448 1.23543 14.4498 1.18238 14.3455 1.14663C14.2412 1.11088 14.1296 1.09314 14.0171 1.09444H9.34879V0.732953C9.35035 0.636226 9.3291 0.540216 9.28631 0.45061C9.24351 0.361003 9.18005 0.279622 9.09966 0.211285C9.01928 0.142948 8.92362 0.0890453 8.81833 0.0527681C8.71305 0.016491 8.60029 -0.00142256 8.48674 8.81875e-05ZM0.86088 4.70934L2.38274 15.7235C2.48289 16.4515 3.20638 17 4.06706 17H12.9329C13.7936 17 14.5163 16.4515 14.6173 15.7235L16.1391 4.70934H0.86088Z" fill="#090808"/>
</svg>
